<svg width="29" height="27" viewBox="0 0 29 27" fill="none" xmlns="http://www.w3.org/2000/svg">
<g filter="url(#filter0_d_12_446)">
<path d="M4.99996 0.165135L22.9993 0.00865606C23.2645 0.00635046 23.5197 0.109492 23.7089 0.295391C23.8981 0.48129 24.0056 0.734719 24.0079 0.999925L24.147 16.9993C24.1493 17.2645 24.0462 17.5198 23.8603 17.7089C23.6744 17.8981 23.421 18.0057 23.1558 18.008L5.15644 18.1645C4.89123 18.1668 4.63597 18.0636 4.44681 17.8777C4.25766 17.6918 4.15009 17.4384 4.14779 17.1732L4.00869 1.17379C4.00639 0.908584 4.10953 0.653324 4.29543 0.464164C4.48133 0.275004 4.73476 0.16744 4.99996 0.165135ZM22.0689 8.01705L6.06947 8.15614L6.13902 16.1558L22.1384 16.0167L22.0689 8.01705ZM22.0515 6.01712L22.0167 2.01727L6.01731 2.15637L6.05208 6.15621L22.0515 6.01712ZM16.1039 12.0691L20.1037 12.0343L20.1211 14.0342L16.1213 14.069L16.1039 12.0691Z" fill="#515D3D"/>
</g>
<defs>
<filter id="filter0_d_12_446" x="0.00866699" y="0.00854492" width="28.1384" height="26.156" filterUnits="userSpaceOnUse" color-interpolation-filters="sRGB">
<feFlood flood-opacity="0" result="BackgroundImageFix"/>
<feColorMatrix in="SourceAlpha" type="matrix" values="0 0 0 0 0 0 0 0 0 0 0 0 0 0 0 0 0 0 127 0" result="hardAlpha"/>
<feOffset dy="4"/>
<feGaussianBlur stdDeviation="2"/>
<feComposite in2="hardAlpha" operator="out"/>
<feColorMatrix type="matrix" values="0 0 0 0 0 0 0 0 0 0 0 0 0 0 0 0 0 0 0.25 0"/>
<feBlend mode="normal" in2="BackgroundImageFix" result="effect1_dropShadow_12_446"/>
<feBlend mode="normal" in="SourceGraphic" in2="effect1_dropShadow_12_446" result="shape"/>
</filter>
</defs>
</svg>
