<svg width="26" height="27" viewBox="0 0 26 27" fill="none" xmlns="http://www.w3.org/2000/svg">
<g filter="url(#filter0_d_12_445)">
<path d="M14 16.7327H20V7.71069L13 2.26669L6 7.71069V16.7327H12V10.7327H14V16.7327ZM22 17.7327C22 17.9979 21.8946 18.2523 21.7071 18.4398C21.5196 18.6273 21.2652 18.7327 21 18.7327H5C4.73478 18.7327 4.48043 18.6273 4.29289 18.4398C4.10536 18.2523 4 17.9979 4 17.7327V7.22269C3.99989 7.07031 4.03462 6.91991 4.10152 6.78299C4.16841 6.64608 4.26572 6.52626 4.386 6.43269L12.386 0.210694C12.5615 0.0741392 12.7776 0 13 0C13.2224 0 13.4385 0.0741392 13.614 0.210694L21.614 6.43269C21.7343 6.52626 21.8316 6.64608 21.8985 6.78299C21.9654 6.91991 22.0001 7.07031 22 7.22269V17.7327Z" fill="#D2F988"/>
</g>
<defs>
<filter id="filter0_d_12_445" x="0" y="0" width="26" height="26.7327" filterUnits="userSpaceOnUse" color-interpolation-filters="sRGB">
<feFlood flood-opacity="0" result="BackgroundImageFix"/>
<feColorMatrix in="SourceAlpha" type="matrix" values="0 0 0 0 0 0 0 0 0 0 0 0 0 0 0 0 0 0 127 0" result="hardAlpha"/>
<feOffset dy="4"/>
<feGaussianBlur stdDeviation="2"/>
<feComposite in2="hardAlpha" operator="out"/>
<feColorMatrix type="matrix" values="0 0 0 0 0 0 0 0 0 0 0 0 0 0 0 0 0 0 0.25 0"/>
<feBlend mode="normal" in2="BackgroundImageFix" result="effect1_dropShadow_12_445"/>
<feBlend mode="normal" in="SourceGraphic" in2="effect1_dropShadow_12_445" result="shape"/>
</filter>
</defs>
</svg>
